# OBJ file
v 0.25 1.0 0.0
v -0.25 1.0 0.0
v 0.25 0.7071067811865476 0.7071067811865476
v -0.25 0.7071067811865476 0.7071067811865476
v 0.25 6.123233995736766e-17 1.0
v -0.25 6.123233995736766e-17 1.0
v 0.25 -0.7071067811865475 0.7071067811865476
v -0.25 -0.7071067811865475 0.7071067811865476
v 0.25 -1.0 1.2246467991473532e-16
v -0.25 -1.0 1.2246467991473532e-16
v 0.25 -0.7071067811865477 -0.7071067811865475
v -0.25 -0.7071067811865477 -0.7071067811865475
v 0.25 -1.8369701987210297e-16 -1.0
v -0.25 -1.8369701987210297e-16 -1.0
v 0.25 0.7071067811865474 -0.7071067811865477
v -0.25 0.7071067811865474 -0.7071067811865477
v 0.25 0 0
v -0.25 0 0
vn 0.0 0.9238795325112866 0.38268343236508967
vn 0.0 0.3826834323650898 0.9238795325112867
vn 0.0 -0.38268343236508967 0.9238795325112866
vn 0.0 -0.9238795325112867 0.3826834323650899
vn -0.0 -0.9238795325112868 -0.38268343236508956
vn -0.0 -0.3826834323650899 -0.9238795325112867
vn 0.0 0.38268343236508956 -0.9238795325112868
vn 0.0 0.9238795325112866 -0.3826834323650899
vn 1.0 0.0 0.0
vn -1.0 0.0 0.0
f 1//1 2//1 3//1
f 2//1 4//1 3//1
f 3//2 4//2 5//2
f 4//2 6//2 5//2
f 5//3 6//3 7//3
f 6//3 8//3 7//3
f 7//4 8//4 9//4
f 8//4 10//4 9//4
f 9//5 10//5 11//5
f 10//5 12//5 11//5
f 11//6 12//6 13//6
f 12//6 14//6 13//6
f 13//7 14//7 15//7
f 14//7 16//7 15//7
f 15//8 16//8 1//8
f 16//8 2//8 1//8
f 17//9 1//9 3//9
f 18//10 4//10 2//10
f 17//9 3//9 5//9
f 18//10 6//10 4//10
f 17//9 5//9 7//9
f 18//10 8//10 6//10
f 17//9 7//9 9//9
f 18//10 10//10 8//10
f 17//9 9//9 11//9
f 18//10 12//10 10//10
f 17//9 11//9 13//9
f 18//10 14//10 12//10
f 17//9 13//9 15//9
f 18//10 16//10 14//10
f 17//9 15//9 1//9
f 18//10 2//10 16//10
